<svg width="1000" height="1000" viewBox="0 0 1000 1000" fill="none" xmlns="http://www.w3.org/2000/svg">
<rect width="1000" height="1000" fill="white"/>
<path d="M340 740C296 740 260.4 776 260.4 820C260.4 864 296 900 340 900C384 900 420 864 420 820C420 776 384 740 340 740ZM100 100V180H180L324 483.6L270 581.6C263.6 592.8 260 606 260 620C260 664 296 700 340 700H820V620H356.8C351.2 620 346.8 615.6 346.8 610L348 605.2L384 540H682C712 540 738.4 523.6 752 498.8L895.2 239.2C898.4 233.6 900 226.8 900 220C900 198 882 180 860 180H268.4L230.8 100H100ZM740 740C696 740 660.4 776 660.4 820C660.4 864 696 900 740 900C784 900 820 864 820 820C820 776 784 740 740 740Z" fill="black"/>
</svg>
